# xmcd CD database file
#
# Track frame offsets:
#	150
#	18397
#	48694
#	66171
#	91648
#	113155
#	125759
#	143106
#	168711
#	189668
#	212965
#	231774
#	252721
#	278523
#	300715
#
# Disc length: 4288 seconds
#
# Revision: 0
# Processed by: cddbd v1.5.2PL0 Copyright (c) Steve Scherf et al.
# Submitted via: CDex 1.51
#
DISCID=e010be0f
DTITLE=Yanni - The Very Best Of Yanni
DYEAR=1900
DGENRE=New Age
TTITLE0=Aria
TTITLE1=Looking Glass
TTITLE2=In The Morning Light
TTITLE3=Marching Season
TTITLE4=Swept Away
TTITLE5=One Man's Dream
TTITLE6=The Mermaid
TTITLE7=To The One Who Knows
TTITLE8=Santorini
TTITLE9=Acroyali
TTITLE10=In The Mirror
TTITLE11=Someday
TTITLE12=Flight Of Fantasy
TTITLE13=The End Of August
TTITLE14=The Rain Must Fall
EXTD=
EXTT0=
EXTT1=
EXTT2=
EXTT3=
EXTT4=
EXTT5=
EXTT6=
EXTT7=
EXTT8=
EXTT9=
EXTT10=
EXTT11=
EXTT12=
EXTT13=
EXTT14=
PLAYORDER=
